<?xml version="1.0" standalone="no"?>
<!DOCTYPE svg PUBLIC "-//W3C//DTD SVG 20010904//EN"
 "http://www.w3.org/TR/2001/REC-SVG-20010904/DTD/svg10.dtd">
<svg version="1.0" xmlns="http://www.w3.org/2000/svg"
 width="800.000000pt" height="800.000000pt" viewBox="0 0 800.000000 800.000000"
 preserveAspectRatio="xMidYMid meet">
<metadata>
Created by potrace 1.11, written by Peter Selinger 2001-2013
</metadata>
<g transform="translate(0.000000,800.000000) scale(0.100000,-0.100000)"
fill="#000000" stroke="none">
<path d="M0 4000 l0 -4000 4000 0 4000 0 0 4000 0 4000 -4000 0 -4000 0 0
-4000z m1735 748 c64 -33 118 -89 147 -153 20 -43 23 -66 23 -170 0 -109 -2
-125 -27 -177 -33 -70 -69 -92 -141 -85 -35 3 -56 11 -75 31 -25 25 -27 33
-32 142 -4 101 -8 118 -25 131 -29 21 -90 10 -134 -25 -154 -123 -228 -674
-104 -772 58 -46 155 -14 200 65 31 55 29 63 -16 75 -22 6 -54 24 -70 41 -41
41 -44 112 -6 157 76 91 374 120 515 49 57 -28 70 -53 59 -114 -12 -61 -49
-107 -101 -128 -43 -16 -43 -16 -76 -118 -57 -180 -157 -314 -279 -373 -51
-26 -69 -29 -153 -29 -80 0 -102 4 -139 23 -194 104 -321 411 -291 702 40 382
238 687 488 750 68 17 181 6 237 -22z m3922 -8 c82 -11 145 -39 169 -75 38
-59 -17 -147 -114 -181 l-52 -19 0 -50 c0 -100 -21 -444 -35 -586 -20 -198
-21 -189 15 -189 75 0 140 -55 140 -119 0 -107 -137 -177 -400 -202 -189 -19
-270 9 -270 92 0 73 48 131 134 164 50 19 46 10 66 177 12 102 30 441 30 581
l0 97 -52 0 c-101 0 -178 62 -163 131 20 90 154 158 350 179 99 10 102 10 182
0z m898 -22 c186 -96 287 -379 272 -762 -7 -179 -29 -283 -88 -404 -49 -101
-128 -186 -214 -228 -55 -26 -69 -29 -165 -29 -123 0 -169 16 -246 87 -124
114 -190 294 -201 550 -17 384 120 700 346 795 48 20 69 23 151 20 78 -3 104
-8 145 -29z m-4137 -3 c19 -16 33 -40 39 -67 6 -26 10 -279 9 -638 -1 -555 -2
-598 -19 -632 -23 -45 -56 -68 -101 -70 -51 -2 -84 26 -118 97 -108 231 -118
890 -18 1158 30 80 76 146 113 162 45 20 61 18 95 -10z m511 -311 c60 -42 76
-165 46 -348 -36 -218 -29 -346 22 -406 20 -25 32 -30 68 -30 55 0 97 33 121
97 23 61 24 235 1 403 -18 134 -15 166 22 219 42 59 124 65 174 13 126 -132
156 -580 53 -798 -61 -129 -141 -194 -271 -221 -146 -29 -277 8 -368 106 -97
103 -131 221 -131 441 1 135 4 168 27 252 30 112 86 227 129 263 34 29 74 32
107 9z m1000 0 c60 -42 75 -159 46 -339 -36 -219 -29 -355 22 -415 21 -25 32
-30 70 -30 38 0 50 5 78 33 19 19 39 53 46 78 17 61 15 241 -5 387 -13 92 -14
132 -6 161 30 111 139 146 208 67 87 -100 135 -409 98 -626 -39 -222 -145
-351 -321 -387 -93 -19 -199 -7 -273 31 -63 32 -137 113 -172 189 -107 228
-58 672 90 828 41 44 79 51 119 23z"/>
<path d="M6328 4320 c-37 -28 -66 -104 -79 -208 -22 -163 16 -378 78 -439 35
-36 90 -29 120 16 78 115 85 450 14 590 -33 63 -85 80 -133 41z"/>
</g>
</svg>
